<svg xmlns="http://www.w3.org/2000/svg" viewBox="0 0 193 193">
<path className="prefix__a"
          d="M1274.182 619.89c18.4-4.244 35.528-7.967 27.232-23.629-25.242-47.676-6.692-73.166 19.963-73.166 27.184 0 45.285 26.47 19.963 73.166-8.545 15.758 9.219 19.473 27.232 23.629 15.935 3.683 16.994 11.474 16.994 24.961l-.024 6.619h-128.33c0-17.62-1.412-27.336 16.97-31.581zm-81.166 31.581h48.149c-.224-52.49 24.035-29.663 24.035-71.418 0-16.119-10.519-24.865-24.055-24.865-19.995 0-33.907 19.12-14.972 54.873 6.218 11.746-6.619 14.539-20.42 17.724-11.959 2.76-12.753 8.601-12.753 18.719l.016 4.967z"
        />
      
    </svg>